<svg xmlns="http://www.w3.org/2000/svg" width="202" height="202" fill="none"><g fill="#D2D6DB" clip-path="url(#clip0)"><circle cx="1" cy="1" r="1"/><circle cx="11" cy="1" r="1"/><circle cx="21" cy="1" r="1"/><circle cx="31" cy="1" r="1"/><circle cx="41" cy="1" r="1"/><circle cx="51" cy="1" r="1"/><circle cx="61" cy="1" r="1"/><circle cx="71" cy="1" r="1"/><circle cx="81" cy="1" r="1"/><circle cx="91" cy="1" r="1"/><circle cx="101" cy="1" r="1"/><circle cx="111" cy="1" r="1"/><circle cx="121" cy="1" r="1"/><circle cx="131" cy="1" r="1"/><circle cx="141" cy="1" r="1"/><circle cx="151" cy="1" r="1"/><circle cx="161" cy="1" r="1"/><circle cx="171" cy="1" r="1"/><circle cx="181" cy="1" r="1"/><circle cx="191" cy="1" r="1"/><circle cx="201" cy="1" r="1"/><circle cx="1" cy="11" r="1"/><circle cx="11" cy="11" r="1"/><circle cx="21" cy="11" r="1"/><circle cx="31" cy="11" r="1"/><circle cx="41" cy="11" r="1"/><circle cx="51" cy="11" r="1"/><circle cx="61" cy="11" r="1"/><circle cx="71" cy="11" r="1"/><circle cx="81" cy="11" r="1"/><circle cx="91" cy="11" r="1"/><circle cx="101" cy="11" r="1"/><circle cx="111" cy="11" r="1"/><circle cx="121" cy="11" r="1"/><circle cx="131" cy="11" r="1"/><circle cx="141" cy="11" r="1"/><circle cx="151" cy="11" r="1"/><circle cx="161" cy="11" r="1"/><circle cx="171" cy="11" r="1"/><circle cx="181" cy="11" r="1"/><circle cx="191" cy="11" r="1"/><circle cx="201" cy="11" r="1"/><circle cx="1" cy="21" r="1"/><circle cx="11" cy="21" r="1"/><circle cx="21" cy="21" r="1"/><circle cx="31" cy="21" r="1"/><circle cx="41" cy="21" r="1"/><circle cx="51" cy="21" r="1"/><circle cx="61" cy="21" r="1"/><circle cx="71" cy="21" r="1"/><circle cx="81" cy="21" r="1"/><circle cx="91" cy="21" r="1"/><circle cx="101" cy="21" r="1"/><circle cx="111" cy="21" r="1"/><circle cx="121" cy="21" r="1"/><circle cx="131" cy="21" r="1"/><circle cx="141" cy="21" r="1"/><circle cx="151" cy="21" r="1"/><circle cx="161" cy="21" r="1"/><circle cx="171" cy="21" r="1"/><circle cx="181" cy="21" r="1"/><circle cx="191" cy="21" r="1"/><circle cx="201" cy="21" r="1"/><circle cx="1" cy="31" r="1"/><circle cx="11" cy="31" r="1"/><circle cx="21" cy="31" r="1"/><circle cx="31" cy="31" r="1"/><circle cx="41" cy="31" r="1"/><circle cx="51" cy="31" r="1"/><circle cx="61" cy="31" r="1"/><circle cx="71" cy="31" r="1"/><circle cx="81" cy="31" r="1"/><circle cx="91" cy="31" r="1"/><circle cx="101" cy="31" r="1"/><circle cx="111" cy="31" r="1"/><circle cx="121" cy="31" r="1"/><circle cx="131" cy="31" r="1"/><circle cx="141" cy="31" r="1"/><circle cx="151" cy="31" r="1"/><circle cx="161" cy="31" r="1"/><circle cx="171" cy="31" r="1"/><circle cx="181" cy="31" r="1"/><circle cx="191" cy="31" r="1"/><circle cx="201" cy="31" r="1"/><circle cx="1" cy="41" r="1"/><circle cx="11" cy="41" r="1"/><circle cx="21" cy="41" r="1"/><circle cx="31" cy="41" r="1"/><circle cx="41" cy="41" r="1"/><circle cx="51" cy="41" r="1"/><circle cx="61" cy="41" r="1"/><circle cx="71" cy="41" r="1"/><circle cx="81" cy="41" r="1"/><circle cx="91" cy="41" r="1"/><circle cx="101" cy="41" r="1"/><circle cx="111" cy="41" r="1"/><circle cx="121" cy="41" r="1"/><circle cx="131" cy="41" r="1"/><circle cx="141" cy="41" r="1"/><circle cx="151" cy="41" r="1"/><circle cx="161" cy="41" r="1"/><circle cx="171" cy="41" r="1"/><circle cx="181" cy="41" r="1"/><circle cx="191" cy="41" r="1"/><circle cx="201" cy="41" r="1"/><circle cx="1" cy="51" r="1"/><circle cx="11" cy="51" r="1"/><circle cx="21" cy="51" r="1"/><circle cx="31" cy="51" r="1"/><circle cx="41" cy="51" r="1"/><circle cx="51" cy="51" r="1"/><circle cx="61" cy="51" r="1"/><circle cx="71" cy="51" r="1"/><circle cx="81" cy="51" r="1"/><circle cx="91" cy="51" r="1"/><circle cx="101" cy="51" r="1"/><circle cx="111" cy="51" r="1"/><circle cx="121" cy="51" r="1"/><circle cx="131" cy="51" r="1"/><circle cx="141" cy="51" r="1"/><circle cx="151" cy="51" r="1"/><circle cx="161" cy="51" r="1"/><circle cx="171" cy="51" r="1"/><circle cx="181" cy="51" r="1"/><circle cx="191" cy="51" r="1"/><circle cx="201" cy="51" r="1"/><circle cx="1" cy="61" r="1"/><circle cx="11" cy="61" r="1"/><circle cx="21" cy="61" r="1"/><circle cx="31" cy="61" r="1"/><circle cx="41" cy="61" r="1"/><circle cx="51" cy="61" r="1"/><circle cx="61" cy="61" r="1"/><circle cx="71" cy="61" r="1"/><circle cx="81" cy="61" r="1"/><circle cx="91" cy="61" r="1"/><circle cx="101" cy="61" r="1"/><circle cx="111" cy="61" r="1"/><circle cx="121" cy="61" r="1"/><circle cx="131" cy="61" r="1"/><circle cx="141" cy="61" r="1"/><circle cx="151" cy="61" r="1"/><circle cx="161" cy="61" r="1"/><circle cx="171" cy="61" r="1"/><circle cx="181" cy="61" r="1"/><circle cx="191" cy="61" r="1"/><circle cx="201" cy="61" r="1"/><circle cx="1" cy="71" r="1"/><circle cx="11" cy="71" r="1"/><circle cx="21" cy="71" r="1"/><circle cx="31" cy="71" r="1"/><circle cx="41" cy="71" r="1"/><circle cx="51" cy="71" r="1"/><circle cx="61" cy="71" r="1"/><circle cx="71" cy="71" r="1"/><circle cx="81" cy="71" r="1"/><circle cx="91" cy="71" r="1"/><circle cx="101" cy="71" r="1"/><circle cx="111" cy="71" r="1"/><circle cx="121" cy="71" r="1"/><circle cx="131" cy="71" r="1"/><circle cx="141" cy="71" r="1"/><circle cx="151" cy="71" r="1"/><circle cx="161" cy="71" r="1"/><circle cx="171" cy="71" r="1"/><circle cx="181" cy="71" r="1"/><circle cx="191" cy="71" r="1"/><circle cx="201" cy="71" r="1"/><circle cx="1" cy="81" r="1"/><circle cx="11" cy="81" r="1"/><circle cx="21" cy="81" r="1"/><circle cx="31" cy="81" r="1"/><circle cx="41" cy="81" r="1"/><circle cx="51" cy="81" r="1"/><circle cx="61" cy="81" r="1"/><circle cx="71" cy="81" r="1"/><circle cx="81" cy="81" r="1"/><circle cx="91" cy="81" r="1"/><circle cx="101" cy="81" r="1"/><circle cx="111" cy="81" r="1"/><circle cx="121" cy="81" r="1"/><circle cx="131" cy="81" r="1"/><circle cx="141" cy="81" r="1"/><circle cx="151" cy="81" r="1"/><circle cx="161" cy="81" r="1"/><circle cx="171" cy="81" r="1"/><circle cx="181" cy="81" r="1"/><circle cx="191" cy="81" r="1"/><circle cx="201" cy="81" r="1"/><circle cx="1" cy="91" r="1"/><circle cx="11" cy="91" r="1"/><circle cx="21" cy="91" r="1"/><circle cx="31" cy="91" r="1"/><circle cx="41" cy="91" r="1"/><circle cx="51" cy="91" r="1"/><circle cx="61" cy="91" r="1"/><circle cx="71" cy="91" r="1"/><circle cx="81" cy="91" r="1"/><circle cx="91" cy="91" r="1"/><circle cx="101" cy="91" r="1"/><circle cx="111" cy="91" r="1"/><circle cx="121" cy="91" r="1"/><circle cx="131" cy="91" r="1"/><circle cx="141" cy="91" r="1"/><circle cx="151" cy="91" r="1"/><circle cx="161" cy="91" r="1"/><circle cx="171" cy="91" r="1"/><circle cx="181" cy="91" r="1"/><circle cx="191" cy="91" r="1"/><circle cx="201" cy="91" r="1"/><circle cx="1" cy="101" r="1"/><circle cx="11" cy="101" r="1"/><circle cx="21" cy="101" r="1"/><circle cx="31" cy="101" r="1"/><circle cx="41" cy="101" r="1"/><circle cx="51" cy="101" r="1"/><circle cx="61" cy="101" r="1"/><circle cx="71" cy="101" r="1"/><circle cx="81" cy="101" r="1"/><circle cx="91" cy="101" r="1"/><circle cx="101" cy="101" r="1"/><circle cx="111" cy="101" r="1"/><circle cx="121" cy="101" r="1"/><circle cx="131" cy="101" r="1"/><circle cx="141" cy="101" r="1"/><circle cx="151" cy="101" r="1"/><circle cx="161" cy="101" r="1"/><circle cx="171" cy="101" r="1"/><circle cx="181" cy="101" r="1"/><circle cx="191" cy="101" r="1"/><circle cx="201" cy="101" r="1"/><circle cx="1" cy="111" r="1"/><circle cx="11" cy="111" r="1"/><circle cx="21" cy="111" r="1"/><circle cx="31" cy="111" r="1"/><circle cx="41" cy="111" r="1"/><circle cx="51" cy="111" r="1"/><circle cx="61" cy="111" r="1"/><circle cx="71" cy="111" r="1"/><circle cx="81" cy="111" r="1"/><circle cx="91" cy="111" r="1"/><circle cx="101" cy="111" r="1"/><circle cx="111" cy="111" r="1"/><circle cx="121" cy="111" r="1"/><circle cx="131" cy="111" r="1"/><circle cx="141" cy="111" r="1"/><circle cx="151" cy="111" r="1"/><circle cx="161" cy="111" r="1"/><circle cx="171" cy="111" r="1"/><circle cx="181" cy="111" r="1"/><circle cx="191" cy="111" r="1"/><circle cx="201" cy="111" r="1"/><circle cx="1" cy="121" r="1"/><circle cx="11" cy="121" r="1"/><circle cx="21" cy="121" r="1"/><circle cx="31" cy="121" r="1"/><circle cx="41" cy="121" r="1"/><circle cx="51" cy="121" r="1"/><circle cx="61" cy="121" r="1"/><circle cx="71" cy="121" r="1"/><circle cx="81" cy="121" r="1"/><circle cx="91" cy="121" r="1"/><circle cx="101" cy="121" r="1"/><circle cx="111" cy="121" r="1"/><circle cx="121" cy="121" r="1"/><circle cx="131" cy="121" r="1"/><circle cx="141" cy="121" r="1"/><circle cx="151" cy="121" r="1"/><circle cx="161" cy="121" r="1"/><circle cx="171" cy="121" r="1"/><circle cx="181" cy="121" r="1"/><circle cx="191" cy="121" r="1"/><circle cx="201" cy="121" r="1"/><circle cx="1" cy="131" r="1"/><circle cx="11" cy="131" r="1"/><circle cx="21" cy="131" r="1"/><circle cx="31" cy="131" r="1"/><circle cx="41" cy="131" r="1"/><circle cx="51" cy="131" r="1"/><circle cx="61" cy="131" r="1"/><circle cx="71" cy="131" r="1"/><circle cx="81" cy="131" r="1"/><circle cx="91" cy="131" r="1"/><circle cx="101" cy="131" r="1"/><circle cx="111" cy="131" r="1"/><circle cx="121" cy="131" r="1"/><circle cx="131" cy="131" r="1"/><circle cx="141" cy="131" r="1"/><circle cx="151" cy="131" r="1"/><circle cx="161" cy="131" r="1"/><circle cx="171" cy="131" r="1"/><circle cx="181" cy="131" r="1"/><circle cx="191" cy="131" r="1"/><circle cx="201" cy="131" r="1"/><circle cx="1" cy="141" r="1"/><circle cx="11" cy="141" r="1"/><circle cx="21" cy="141" r="1"/><circle cx="31" cy="141" r="1"/><circle cx="41" cy="141" r="1"/><circle cx="51" cy="141" r="1"/><circle cx="61" cy="141" r="1"/><circle cx="71" cy="141" r="1"/><circle cx="81" cy="141" r="1"/><circle cx="91" cy="141" r="1"/><circle cx="101" cy="141" r="1"/><circle cx="111" cy="141" r="1"/><circle cx="121" cy="141" r="1"/><circle cx="131" cy="141" r="1"/><circle cx="141" cy="141" r="1"/><circle cx="151" cy="141" r="1"/><circle cx="161" cy="141" r="1"/><circle cx="171" cy="141" r="1"/><circle cx="181" cy="141" r="1"/><circle cx="191" cy="141" r="1"/><circle cx="201" cy="141" r="1"/><circle cx="1" cy="151" r="1"/><circle cx="11" cy="151" r="1"/><circle cx="21" cy="151" r="1"/><circle cx="31" cy="151" r="1"/><circle cx="41" cy="151" r="1"/><circle cx="51" cy="151" r="1"/><circle cx="61" cy="151" r="1"/><circle cx="71" cy="151" r="1"/><circle cx="81" cy="151" r="1"/><circle cx="91" cy="151" r="1"/><circle cx="101" cy="151" r="1"/><circle cx="111" cy="151" r="1"/><circle cx="121" cy="151" r="1"/><circle cx="131" cy="151" r="1"/><circle cx="141" cy="151" r="1"/><circle cx="151" cy="151" r="1"/><circle cx="161" cy="151" r="1"/><circle cx="171" cy="151" r="1"/><circle cx="181" cy="151" r="1"/><circle cx="191" cy="151" r="1"/><circle cx="201" cy="151" r="1"/><circle cx="1" cy="161" r="1"/><circle cx="11" cy="161" r="1"/><circle cx="21" cy="161" r="1"/><circle cx="31" cy="161" r="1"/><circle cx="41" cy="161" r="1"/><circle cx="51" cy="161" r="1"/><circle cx="61" cy="161" r="1"/><circle cx="71" cy="161" r="1"/><circle cx="81" cy="161" r="1"/><circle cx="91" cy="161" r="1"/><circle cx="101" cy="161" r="1"/><circle cx="111" cy="161" r="1"/><circle cx="121" cy="161" r="1"/><circle cx="131" cy="161" r="1"/><circle cx="141" cy="161" r="1"/><circle cx="151" cy="161" r="1"/><circle cx="161" cy="161" r="1"/><circle cx="171" cy="161" r="1"/><circle cx="181" cy="161" r="1"/><circle cx="191" cy="161" r="1"/><circle cx="201" cy="161" r="1"/><circle cx="1" cy="171" r="1"/><circle cx="11" cy="171" r="1"/><circle cx="21" cy="171" r="1"/><circle cx="31" cy="171" r="1"/><circle cx="41" cy="171" r="1"/><circle cx="51" cy="171" r="1"/><circle cx="61" cy="171" r="1"/><circle cx="71" cy="171" r="1"/><circle cx="81" cy="171" r="1"/><circle cx="91" cy="171" r="1"/><circle cx="101" cy="171" r="1"/><circle cx="111" cy="171" r="1"/><circle cx="121" cy="171" r="1"/><circle cx="131" cy="171" r="1"/><circle cx="141" cy="171" r="1"/><circle cx="151" cy="171" r="1"/><circle cx="161" cy="171" r="1"/><circle cx="171" cy="171" r="1"/><circle cx="181" cy="171" r="1"/><circle cx="191" cy="171" r="1"/><circle cx="201" cy="171" r="1"/><circle cx="1" cy="181" r="1"/><circle cx="11" cy="181" r="1"/><circle cx="21" cy="181" r="1"/><circle cx="31" cy="181" r="1"/><circle cx="41" cy="181" r="1"/><circle cx="51" cy="181" r="1"/><circle cx="61" cy="181" r="1"/><circle cx="71" cy="181" r="1"/><circle cx="81" cy="181" r="1"/><circle cx="91" cy="181" r="1"/><circle cx="101" cy="181" r="1"/><circle cx="111" cy="181" r="1"/><circle cx="121" cy="181" r="1"/><circle cx="131" cy="181" r="1"/><circle cx="141" cy="181" r="1"/><circle cx="151" cy="181" r="1"/><circle cx="161" cy="181" r="1"/><circle cx="171" cy="181" r="1"/><circle cx="181" cy="181" r="1"/><circle cx="191" cy="181" r="1"/><circle cx="201" cy="181" r="1"/></g><defs><clipPath id="clip0"><path fill="#fff" d="M0 0h202v202H0z"/></clipPath></defs></svg>