<svg width="50" height="50" xmlns="http://www.w3.org/2000/svg"><path d="M28.2027 24.9999C28.2027 32.8413 21.8894 39.1981 14.1014 39.1981C6.31338 39.1981 0 32.8413 0 24.9999C0 17.1585 6.31338 10.8018 14.1014 10.8018C21.8893 10.8018 28.2027 17.1585 28.2027 24.9999Z"></path><path d="M43.6722 25.0003C43.6722 32.3816 40.5154 38.3653 36.6215 38.3653C32.7275 38.3653 29.5708 32.3816 29.5708 25.0003C29.5708 17.6189 32.7275 11.6353 36.6215 11.6353C40.5155 11.6353 43.6722 17.6189 43.6722 25.0003Z"></path><path d="M50 24.9999C50 31.6133 48.8897 36.9744 47.5202 36.9744C46.1506 36.9744 45.0405 31.6133 45.0405 24.9999C45.0405 18.3865 46.1506 13.0254 47.5202 13.0254C48.8897 13.0254 50 18.3865 50 24.9999Z"></path></svg>
